<?xml version="1.0" encoding="UTF-8"?>
<!DOCTYPE svg PUBLIC "-//W3C//DTD SVG 1.1//EN" "http://www.w3.org/Graphics/SVG/1.1/DTD/svg11.dtd">
<!-- Creator: CorelDRAW -->
<svg xmlns="http://www.w3.org/2000/svg" xml:space="preserve" width="6.82666in" height="6.82666in" style="shape-rendering:geometricPrecision; text-rendering:geometricPrecision; image-rendering:optimizeQuality; fill-rule:evenodd; clip-rule:evenodd"
viewBox="0 0 6.82666 6.82666"
 xmlns:xlink="http://www.w3.org/1999/xlink">
 <defs>
  <style type="text/css">
   <![CDATA[
    .fil1 {fill:none}
    .fil0 {fill:#212121;fill-rule:nonzero}
   ]]>
  </style>
 </defs>
 <g id="Layer_x0020_1">
  <metadata id="CorelCorpID_0Corel-Layer"/>
  <path class="fil0" d="M0.960209 4.22178l2.07667 0c0.0589094,0 0.106669,0.0477598 0.106669,0.106669l0 1.08333c0,0.0589094 -0.0477598,0.106669 -0.106669,0.106669l-0.358744 0 -0.343681 0.343685 7.87402e-006 7.87402e-006c-0.0416535,0.0416535 -0.109197,0.0416535 -0.15085,0l-0.000590551 -0.000606299 -0.343087 -0.343087 -0.87972 0c-0.0589094,0 -0.106669,-0.0477598 -0.106669,-0.106669l0 -1.08333c0,-0.0589094 0.0477598,-0.106669 0.106669,-0.106669zm1.97 0.213339l-1.86333 0 0 0.869996 0.817217 0 0 3.93701e-006c0.0272992,0 0.0545984,0.0104134 0.0754252,0.0312402l-7.87402e-006 7.87402e-006 0.29952 0.29952 0.298858 -0.298862c0.0193543,-0.0196929 0.0462835,-0.0319094 0.0760748,-0.0319094l0.29624 0 0 -0.869996z"/>
  <path class="fil0" d="M1.41254 4.61214c-0.0441811,0 -0.08,0.0358189 -0.08,0.08 0,0.0441811 0.0358189,0.08 0.08,0.08l1.172 0c0.0441811,0 0.08,-0.0358189 0.08,-0.08 0,-0.0441811 -0.0358189,-0.08 -0.08,-0.08l-1.172 0z"/>
  <path class="fil0" d="M1.41254 4.9681c-0.0441811,0 -0.08,0.0358189 -0.08,0.08 0,0.0441811 0.0358189,0.08 0.08,0.08l1.172 0c0.0441811,0 0.08,-0.0358189 0.08,-0.08 0,-0.0441811 -0.0358189,-0.08 -0.08,-0.08l-1.172 0z"/>
  <path class="fil0" d="M4.25204 2.29285c-0.000740157,-0.0259331 -0.00111024,-0.0455669 -0.00111024,-0.0585315 0,-0.076685 0.0107402,-0.142996 0.0325984,-0.198563 0.0159291,-0.0418583 0.0414921,-0.0840906 0.0770551,-0.127063 0.0259291,-0.0311181 0.0729764,-0.076311 0.140398,-0.135953 0.0677913,-0.0600157 0.111504,-0.107433 0.131882,-0.142996 0.020374,-0.0351929 0.030374,-0.0740906 0.030374,-0.115949 0,-0.0759409 -0.0296339,-0.142622 -0.0889055,-0.200413 -0.0592717,-0.0574213 -0.132252,-0.086315 -0.218197,-0.086315 -0.0833504,0 -0.152622,0.0263031 -0.208189,0.0781654 -0.0559409,0.0522323 -0.0922441,0.133732 -0.109654,0.244496l-0.200783 -0.0240787c0.0181496,-0.148181 0.0718661,-0.261909 0.161146,-0.340815 0.0892756,-0.0789055 0.207449,-0.118173 0.35415,-0.118173 0.155587,0 0.279689,0.0422323 0.372299,0.127067 0.0926142,0.0844606 0.138917,0.186705 0.138917,0.307102 0,0.0692717 -0.0162992,0.133358 -0.0488976,0.19189 -0.0325984,0.0585315 -0.0959449,0.130028 -0.190783,0.213752 -0.0637165,0.0566772 -0.105205,0.0981654 -0.124839,0.124839 -0.0196339,0.0270433 -0.0340827,0.0577913 -0.0433425,0.0922441 -0.00963386,0.0348189 -0.0148189,0.0911299 -0.0162992,0.169295l-0.187819 0zm-0.0118543 0.391933l0 -0.222638 0.222268 0 0 0.222638 -0.222268 0z"/>
  <path class="fil0" d="M2.25512 3.78287l-0.890677 -0.211728 0.0245827 -0.103752 -0.0246693 0.103776c-0.0495945,-0.0117874 -0.0827874,-0.0564449 -0.082,-0.105398l0 -0.654075c-0.203689,-0.194461 -0.33361,-0.430776 -0.392142,-0.670394 -0.052685,-0.215685 -0.047685,-0.434453 0.0131969,-0.628665 0.0621732,-0.198339 0.182315,-0.371409 0.358665,-0.490972 0.155543,-0.105457 0.352843,-0.16815 0.590024,-0.16815 0.0837323,0 0.163472,0.00652362 0.239008,0.0191102 0.251201,0.0418583 0.445378,0.151417 0.577984,0.312299 0.132402,0.160634 0.20076,0.369295 0.20076,0.609909 0,0.0622992 -0.00474016,0.127421 -0.0142992,0.195059l0.239276 0.395323 0.000102362 -6.29921e-005c0.0305039,0.0503937 0.014374,0.11598 -0.0360197,0.146484 -0.0175866,0.0106457 -0.0370197,0.0156024 -0.0561693,0.0154173l-0.102276 0c0.00196457,0.0350787 0.00403937,0.0691063 0.00599606,0.101154 0.00687008,0.112472 0.0122598,0.200752 0.00749606,0.27322 -0.017315,0.263232 -0.118768,0.32163 -0.505437,0.304972l-0.0187953 0.457783 -0.106252 -0.00416535 0.106579 0.00437402c-0.00241339,0.0588583 -0.0520945,0.104618 -0.110953,0.102205 -0.0082874,-0.000338583 -0.016311,-0.00161811 -0.0239803,-0.00372441zm-0.759425 -0.39972l0.686843 0.163276 0.0175787 -0.428177c-0.000137795,-0.00367323 -9.44882e-005,-0.00738189 0.000153543,-0.011126 0.00386614,-0.0587835 0.0546575,-0.103299 0.113441,-0.0994331l-1.1811e-005 0.000204724c0.305795,0.0201024 0.380803,0.00589764 0.387756,-0.0997992 0.00394488,-0.0600276 -0.00108661,-0.142417 -0.00749606,-0.247386 -0.00361417,-0.0591811 -0.00766929,-0.125508 -0.0110748,-0.2075 -0.000503937,-0.00420472 -0.000771654,-0.00848425 -0.000771654,-0.0128268 0,-0.0589094 0.0477598,-0.106669 0.106669,-0.106669l0.0257913 0 -0.158705 -0.262205c-0.0146339,-0.0218031 -0.0213031,-0.0490236 -0.0166457,-0.0769685l0.105217 0.0175354 -0.105 -0.0175c0.0114213,-0.0685276 0.0170748,-0.135264 0.0170748,-0.199744 0,-0.191126 -0.0516142,-0.353622 -0.151587,-0.474909 -0.0997717,-0.121047 -0.250398,-0.204236 -0.448819,-0.237299 -0.0623386,-0.0103858 -0.130358,-0.0157717 -0.204008,-0.0157717 -0.192906,0 -0.350008,0.0487087 -0.470858,0.130646 -0.134236,0.0910079 -0.226236,0.224504 -0.2745,0.378469 -0.0495551,0.158083 -0.0533189,0.337406 -0.00985827,0.515335 0.0515709,0.211134 0.169461,0.419776 0.356067,0.588945 0.0259528,0.0194567 0.0427441,0.0504685 0.0427441,0.0853976l0 0.617508z"/>
  <path class="fil0" d="M4.64454 5.73289l0.686843 -0.163276 0 -0.617508c0,-0.0349291 0.0167913,-0.0659409 0.0427441,-0.0853976 0.186606,-0.169169 0.304496,-0.377811 0.356067,-0.588945 0.0434606,-0.177929 0.0396969,-0.357252 -0.00985827,-0.515335 -0.0482638,-0.153965 -0.140264,-0.287461 -0.2745,-0.378469 -0.12085,-0.081937 -0.277953,-0.130646 -0.470858,-0.130646 -0.0736496,0 -0.141669,0.00538583 -0.204008,0.0157717 -0.198421,0.033063 -0.349047,0.116252 -0.448819,0.237299 -0.0999724,0.121287 -0.151587,0.28378 -0.151587,0.474909 0,0.0644803 0.00565354,0.131217 0.0170748,0.199744l-0.105 0.0175 0.105217 -0.0175354c0.00465748,0.0279449 -0.00201181,0.0551654 -0.0166457,0.0769685l-0.158705 0.262205 0.0257913 0c0.0589094,0 0.106669,0.0477598 0.106669,0.106669 0,0.00434252 -0.000267717,0.00862205 -0.000771654,0.0128268 -0.00340551,0.0819921 -0.00746063,0.148319 -0.0110748,0.2075 -0.00640945,0.104969 -0.0114449,0.187354 -0.00749606,0.247386 0.00694882,0.105693 0.0819606,0.119902 0.387756,0.0997992l-1.1811e-005 -0.000204724c0.0587835,-0.00386614 0.109575,0.0406496 0.113441,0.0994331 0.000248031,0.00374409 0.000291339,0.00745276 0.000153543,0.011126l0.0175787 0.428177zm0.793512 -0.0790354l0.0245827 0.103752 -0.890677 0.211728c-0.00766929,0.0021063 -0.0156929,0.00338583 -0.0239803,0.00372441 -0.0588583,0.00241339 -0.108539,-0.0433465 -0.110953,-0.102205l0.106579 -0.00437402 -0.106252 0.00416535 -0.0187953 -0.457783c-0.386669,0.0166575 -0.488122,-0.0417402 -0.505437,-0.304972 -0.00476378,-0.0724685 0.000625984,-0.160748 0.00749606,-0.27322 0.00195669,-0.0320472 0.0040315,-0.0660748 0.00599606,-0.101154l-0.102276 0c-0.0191496,0.000185039 -0.0385827,-0.00477165 -0.0561693,-0.0154173 -0.0503937,-0.0305039 -0.0665236,-0.0960906 -0.0360197,-0.146484l0.000102362 6.29921e-005 0.239276 -0.395323c-0.00955906,-0.0676378 -0.0142992,-0.13276 -0.0142992,-0.195059 0,-0.240614 0.0683583,-0.449276 0.20076,-0.609909 0.132606,-0.160882 0.326783,-0.270441 0.577984,-0.312299 0.0755354,-0.0125866 0.155276,-0.0191102 0.239008,-0.0191102 0.237181,0 0.43448,0.0626929 0.590024,0.16815 0.17635,0.119563 0.296492,0.292634 0.358665,0.490972 0.0608819,0.194213 0.0658819,0.41298 0.0131969,0.628665 -0.0585315,0.239618 -0.188453,0.475933 -0.392142,0.670394l0 0.654075c0.000787402,0.0489528 -0.0324055,0.0936102 -0.082,0.105398l-0.0246693 -0.103776z"/>
 </g>
 <rect class="fil1" width="6.82666" height="6.82666"/>
</svg>
