<svg xmlns="http://www.w3.org/2000/svg" viewBox="0 0 500 500"><defs><style>.a{fill:#fff;}</style></defs><title>jblogo</title><path class="a" d="M41,313.27A255.93,255.93,0,0,0,42,353q2,19.34,9.92,34.35,8.4,15,24.94,23.92,16.79,9.42,43.77,9.42,32.31,0,50.13-10.94,16.79-9.92,23.41-26.46a111.14,111.14,0,0,0,7.89-36.64q.51-19.34.51-38.42V59.57h22.9V315.81q0,16.79-1,37.66a129.74,129.74,0,0,1-10.94,40.71q-8.91,19.6-29.77,32.83-21.37,13-60.31,13.49Q86.27,440,64.9,428T33.6,397.24A119.76,119.76,0,0,1,21.13,356a234.3,234.3,0,0,1-3.05-42.75Z"/><path class="a" d="M203.1,59.57H352.21q33.84,0,56.24,7.89,22.9,8.15,35.88,21.88a76.78,76.78,0,0,1,19.85,30.54A131,131,0,0,1,469.27,156q-.51,30-19.59,51.91Q430.33,230.57,397,235.15l1,1q4.58-1,17.81,2.54,13,3.82,28,14.25,15.77,9.67,27.23,27.48,10.43,18.83,10.94,46.82-.51,51.15-35.62,77.36-34.86,27-94.15,27H203.1ZM226,228.28H352.21q93.64-2,94.15-76.59-.51-39.95-28-56.75-27.74-15.52-66.16-15.52H226Zm0,183.47H352.21q104.58-.51,106.87-84.48,0-23.92-8.91-39.44a61.35,61.35,0,0,0-25.7-23.92,112.89,112.89,0,0,0-34.35-13.23,283.39,283.39,0,0,0-37.91-2.54H226Z"/><rect class="a" x="157.58" y="59.5" width="64.85" height="19.26"/></svg>