<?xml version="1.0" encoding="UTF-8"?>
<!DOCTYPE svg PUBLIC "-//W3C//DTD SVG 1.1//EN" "http://www.w3.org/Graphics/SVG/1.1/DTD/svg11.dtd">
<!-- Creator: CorelDRAW -->
<svg xmlns="http://www.w3.org/2000/svg" xml:space="preserve" width="6.82666in" height="6.82666in" style="shape-rendering:geometricPrecision; text-rendering:geometricPrecision; image-rendering:optimizeQuality; fill-rule:evenodd; clip-rule:evenodd"
viewBox="0 0 6.82666 6.82666"
 xmlns:xlink="http://www.w3.org/1999/xlink">
 <defs>
  <style type="text/css">
   <![CDATA[
    .fil2 {fill:none}
    .fil1 {fill:#212121}
    .fil0 {fill:#212121;fill-rule:nonzero}
   ]]>
  </style>
 </defs>
 <g id="Layer_x0020_1">
  <metadata id="CorelCorpID_0Corel-Layer"/>
  <path class="fil0" d="M1.15679 1.52241l4.51309 0c0.0808465,0 0.155185,0.0303504 0.209811,0.0792283 0.0577795,0.0516969 0.0936496,0.123705 0.0936496,0.203516l0 3.21635c0,0.079815 -0.035874,0.151819 -0.0936535,0.203508 -0.0546299,0.0488819 -0.128969,0.0792362 -0.209807,0.0792362l-4.51309 0c-0.0808346,0 -0.155177,-0.0303504 -0.209815,-0.0792323 -0.0577756,-0.0516929 -0.0936457,-0.123693 -0.0936457,-0.203512l0 -3.21635c0,-0.0798189 0.0358622,-0.151827 0.0936417,-0.20352 0.0546339,-0.0488819 0.128972,-0.0792244 0.209819,-0.0792244zm4.51309 0.213339l-4.51309 0c-0.0273858,0 -0.0514528,0.00927953 -0.0681496,0.0242165 -0.0135551,0.0121299 -0.0219724,0.0281732 -0.0219724,0.045189l0 3.21635c0,0.0170079 0.00842126,0.0330512 0.0219764,0.0451811 0.0167047,0.0149449 0.0407717,0.0242244 0.0681457,0.0242244l4.51309 0c0.0273701,0 0.0514331,-0.00928346 0.0681378,-0.0242283 0.0135591,-0.0121299 0.0219843,-0.0281732 0.0219843,-0.0451772l0 -3.21635c0,-0.0170079 -0.00842126,-0.0330551 -0.0219803,-0.045185 -0.0166969,-0.0149409 -0.0407677,-0.0242205 -0.0681417,-0.0242205z"/>
  <polygon class="fil0" points="0.959996,2.15215 5.86667,2.15215 5.86667,2.36549 0.959996,2.36549 "/>
  <circle class="fil1" cx="5.44482" cy="1.9464" r="0.102499"/>
  <circle class="fil1" cx="5.09017" cy="1.9464" r="0.102499"/>
  <circle class="fil1" cx="4.73553" cy="1.9464" r="0.102499"/>
  <path class="fil0" d="M1.62737 4.56785c0,-0.493165 0.199909,-0.939661 0.523106,-1.26286 0.323197,-0.323197 0.769693,-0.523106 1.26286,-0.523106 0.493165,0 0.939661,0.199909 1.26286,0.523106 0.323197,0.323197 0.523106,0.769693 0.523106,1.26286l-0.213339 0c0,-0.43428 -0.176024,-0.827445 -0.460602,-1.11202 -0.284579,-0.284579 -0.677744,-0.460602 -1.11202,-0.460602 -0.43428,0 -0.827445,0.176024 -1.11202,0.460602 -0.284579,0.284579 -0.460602,0.677744 -0.460602,1.11202l-0.213339 0z"/>
  <path class="fil0" d="M3.34157 4.2303c0.0641299,-0.0342913 0.136157,-0.0393228 0.200744,-0.0197441 0.0645787,0.0195748 0.121713,0.0638268 0.156075,0.128091 0.0342913,0.0641339 0.0393228,0.136161 0.0197441,0.200752 -0.0195748,0.0645748 -0.0638268,0.121709 -0.128091,0.156071 -0.064126,0.0342913 -0.136157,0.0393228 -0.200744,0.0197441 -0.0645787,-0.0195748 -0.121709,-0.0638228 -0.156075,-0.128091 -0.0342913,-0.0641299 -0.0393228,-0.136154 -0.0197441,-0.200748 0.0195748,-0.0645748 0.0638228,-0.121709 0.128091,-0.156075zm0.139075 0.183587c-0.0125157,-0.00379134 -0.0265354,-0.0027874 -0.0390748,0.00391732 -0.0124016,0.00662992 -0.0209606,0.0177087 -0.0247598,0.0302402 -0.00379528,0.0125197 -0.0027874,0.0265394 0.00391732,0.0390787 0.00662992,0.0123976 0.0177087,0.0209606 0.0302402,0.0247598 0.0125157,0.00379134 0.0265354,0.0027874 0.0390748,-0.00391732 0.0124016,-0.00662992 0.0209646,-0.0177087 0.0247598,-0.0302362 0.00379528,-0.0125197 0.0027874,-0.0265433 -0.00391732,-0.0390827 -0.00662992,-0.0124016 -0.0177087,-0.0209606 -0.0302402,-0.0247598z"/>
  <path class="fil0" d="M3.03991 3.44107c-0.0276142,-0.0517756 -0.0919764,-0.0713661 -0.143752,-0.043752 -0.0517756,0.0276142 -0.0713661,0.0919764 -0.043752,0.143752l0.445421 0.832984c0.0276142,0.0517756 0.0919764,0.0713661 0.143752,0.043752 0.0517756,-0.0276142 0.0713661,-0.0919764 0.043752,-0.143752l-0.445421 -0.832984z"/>
 </g>
 <rect class="fil2" width="6.82666" height="6.82666"/>
</svg>
