<?xml version="1.0" encoding="UTF-8"?>
<!DOCTYPE svg PUBLIC "-//W3C//DTD SVG 1.1//EN" "http://www.w3.org/Graphics/SVG/1.1/DTD/svg11.dtd">
<!-- Creator: CorelDRAW -->
<svg xmlns="http://www.w3.org/2000/svg" xml:space="preserve" width="6.82666in" height="6.82666in" style="shape-rendering:geometricPrecision; text-rendering:geometricPrecision; image-rendering:optimizeQuality; fill-rule:evenodd; clip-rule:evenodd"
viewBox="0 0 6.82666 6.82666"
 xmlns:xlink="http://www.w3.org/1999/xlink">
 <defs>
  <style type="text/css">
   <![CDATA[
    .fil1 {fill:none}
    .fil0 {fill:#212121;fill-rule:nonzero}
   ]]>
  </style>
 </defs>
 <g id="Layer_x0020_1">
  <metadata id="CorelCorpID_0Corel-Layer"/>
  <g id="_367328672">
   <path id="_367328504" class="fil0" d="M3.51 2.1252l-0.188378 -0.0319764 -0.0647205 -0.0109843 -0.0194449 -0.0627638c-0.00891339,-0.0287835 -0.0190551,-0.0569134 -0.0304016,-0.084315 -0.0109685,-0.0264803 -0.0235669,-0.0532047 -0.0377874,-0.0801102l-0.0306142 -0.0579213 0.0381142 -0.0533268 0.111012 -0.155307c0.00838583,-0.0117874 0.0119094,-0.0259724 0.0107402,-0.0399134 -0.00113386,-0.0135079 -0.00686614,-0.0265669 -0.0170079,-0.0366142l-0.000417323 0 -0.167075 -0.167075c-0.00600394,-0.00600394 -0.0125394,-0.0104843 -0.0192717,-0.0132874 -0.0066811,-0.00277953 -0.0142913,-0.00424803 -0.0225079,-0.00424803 -0.00692126,0 -0.0129567,0.000826772 -0.0179488,0.00243307 -0.0056378,0.00181496 -0.0109764,0.00450787 -0.0158346,0.00800787l-0.000417323 0.000413386 -0.155854 0.111004 -0.0534055 0.0380433 -0.0578425 -0.0305433c-0.0283071,-0.0149449 -0.0565591,-0.0282677 -0.0846181,-0.0398071 -0.0268543,-0.0110433 -0.0554331,-0.0211496 -0.0857126,-0.0302126l-0.0635197 -0.0190118 -0.011063 -0.0655709 -0.0313976 -0.186122c-0.00241339,-0.0143701 -0.00977953,-0.0267717 -0.0201654,-0.0355591 -0.0102126,-0.00864173 -0.0236969,-0.0137677 -0.0385354,-0.0137677l-0.236039 0c-0.0148543,0 -0.0283465,0.00512598 -0.038563,0.0137677 -0.0103819,0.00878346 -0.0177559,0.021189 -0.0201654,0.0355591l0 0.000417323 -0.0324961 0.19061 -0.0109488 0.064248 -0.0623858 0.0195c-0.0295945,0.00925197 -0.057378,0.0193543 -0.0832008,0.0302402 -0.0260276,0.0109724 -0.0528307,0.0238858 -0.0802638,0.0386693l-0.0583898 0.0314724 -0.0541102 -0.0389724 -0.154177 -0.111039c-0.00494094,-0.00355512 -0.0102047,-0.00622441 -0.0155787,-0.00794094 -0.00509055,-0.00162598 -0.0114252,-0.00246457 -0.0187874,-0.00246457 -0.00832677,0 -0.0160945,0.00149213 -0.0228976,0.00432283 -0.00694882,0.0028937 -0.0132323,0.00707087 -0.018437,0.012374l-0.000834646 0.000834646 -0.167433 0.166862 0.000208661 0.000208661c-0.0102874,0.0102874 -0.0161299,0.0234567 -0.0172598,0.0369291 -0.00116142,0.013874 0.00227559,0.0279488 0.0105748,0.0396024l0.11213 0.157547 0.0377756 0.0530748 -0.0302756 0.0577559c-0.0128465,0.0245079 -0.0252165,0.0514764 -0.037126,0.080811 -0.0112402,0.027685 -0.021063,0.0556142 -0.0295315,0.0837756l-0.0191063 0.0635472 -0.0654764 0.0110354 -0.186126 0.031374c-0.0143661,0.00240945 -0.0267717,0.00978346 -0.0355591,0.0201732 -0.00864173,0.0102165 -0.0137677,0.0237047 -0.0137677,0.0385551l0 0.236035c0,0.0148425 0.00512598,0.0283268 0.0137677,0.0385433 0.00878346,0.0103819 0.021189,0.017752 0.0355591,0.0201614l0.000417323 0 0.190618 0.0325276 0.0642441 0.0109646 0.0195039 0.0623701c0.00924409,0.0295709 0.0193465,0.0573425 0.0302283,0.0831575 0.0109764,0.0260394 0.0238898,0.0528583 0.0386732,0.0802992l0.031437 0.0583583 -0.038937 0.0541417 -0.110122 0.153134 7.48031e-005 5.51181e-005c-0.00838976,0.0117913 -0.0119134,0.0259803 -0.0107441,0.0399134 0.00113386,0.0135079 0.00686614,0.0265669 0.0170118,0.0366181l0.000417323 0 0.167075 0.167071 0 0.000417323c0.00552756,0.00552756 0.0120669,0.00987402 0.0192677,0.0128701 0.00668504,0.00278346 0.0142953,0.00424803 0.0225079,0.00424803 0.0069252,0 0.0129567,-0.000826772 0.0179449,-0.00242913 0.00567717,-0.00182283 0.0110157,-0.00450787 0.0158425,-0.00798031l0.000417323 -0.000413386 0.157543 -0.11213 0.0530906 -0.0377835 0.0577402 0.0302835c0.0245354,0.0128701 0.0502677,0.0247953 0.0770039,0.0357913 0.0258543,0.0106339 0.0534843,0.0204882 0.0826496,0.0295787l0.0625591 0.0195 0.0107756 0.0646654 0.0313976 0.188374c0.00240945,0.0143661 0.00978346,0.0267717 0.0201693,0.0355591 0.0102165,0.00864173 0.0236969,0.0137677 0.0385394,0.0137677l0.236606 0c0.0148583,0 0.0283504,-0.00512598 0.038563,-0.0137677 0.010378,-0.00877953 0.0177402,-0.0211772 0.0201496,-0.0355591l0.0319409 -0.188374 0.0109764 -0.0647283 0.0627717 -0.019437c0.0288346,-0.0089252 0.0570039,-0.0190709 0.0844252,-0.0304252 0.0264567,-0.0109528 0.0531535,-0.0235394 0.0800315,-0.0377598l0.0579016 -0.0306299 0.0533465 0.0381299 0.155299 0.111004 0.000417323 0.000413386c0.00496063,0.00356693 0.0102323,0.00624409 0.0156024,0.00796063l0.000417323 0c0.00511024,0.00163386 0.0112835,0.00247638 0.0183189,0.00247638 0.00822047,0 0.0158307,-0.00146457 0.0225079,-0.00424409 0.00673228,-0.00280315 0.0132677,-0.00728346 0.0192717,-0.0132874l0.167075 -0.167075c0.0102795,-0.0102795 0.0161142,-0.0234409 0.0172441,-0.0369134 0.00116535,-0.0138898 -0.00227559,-0.0279724 -0.0105669,-0.039626l-0.110996 -0.155874 -0.0377795 -0.0530551 0.0302795 -0.0577756c0.0139961,-0.0267087 0.0269921,-0.0543268 0.0387874,-0.082815 0.0113583,-0.0274331 0.0212323,-0.054685 0.0293937,-0.0816102l0.0192047 -0.0633346 0.0649606 -0.0108307 0.188374 -0.0313976c0.014378,-0.00240945 0.0267795,-0.00976772 0.0355591,-0.0201457 0.00864173,-0.0102165 0.0137677,-0.0237087 0.0137677,-0.038563l0 -0.236031 0.000417323 -0.00125197c0.000192913,-0.0141181 -0.00485827,-0.0272874 -0.0134921,-0.0375787 -0.0085748,-0.0102205 -0.0208425,-0.0174843 -0.035126,-0.019878zm-0.0907283 -0.231343l0.125728 0.0213425c0.0660157,0.0110669 0.12311,0.045122 0.163457,0.0932087 0.0398858,0.0475394 0.0632874,0.108933 0.0626732,0.1755l0.000409449 0 0 0.236031c0,0.0664567 -0.0240472,0.128118 -0.0646024,0.176067 -0.0404213,0.0477756 -0.0972795,0.0816142 -0.163063,0.0926417l-0.125705 0.0209528c-0.00465354,0.0125118 -0.00951181,0.0248661 -0.0145591,0.0370551 -0.00566929,0.0136969 -0.0116575,0.0273701 -0.0179331,0.0410118l0.0743031 0.104343c0.0387323,0.0544291 0.0549409,0.118472 0.0497402,0.180461 -0.00525197,0.0625866 -0.0319449,0.123276 -0.0789134,0.170244l-0.167075 0.167075c-0.0254409,0.0254409 -0.0554331,0.0453858 -0.088437,0.059122 -0.032937,0.0137047 -0.0681732,0.0209134 -0.104177,0.0209134 -0.0277598,0 -0.0558583,-0.00452362 -0.0833189,-0.013311l3.93701e-005 -0.000122047c-0.0267402,-0.00859449 -0.0519646,-0.021185 -0.074752,-0.0375l-5.51181e-005 7.48031e-005 -0.10378 -0.0741811c-0.0126575,0.00576378 -0.0255394,0.0113543 -0.0386339,0.0167756 -0.0131299,0.00543701 -0.0263425,0.0106299 -0.0396339,0.0155787l-0.021315 0.125717c-0.0110276,0.0657874 -0.0448701,0.122642 -0.0926457,0.163063 -0.0479488,0.040563 -0.10961,0.0646024 -0.176067,0.0646024l-0.236606 0c-0.0664488,0 -0.128098,-0.0240472 -0.176043,-0.0646024 -0.0477677,-0.0404134 -0.0816181,-0.0972677 -0.0926654,-0.163063l-0.0209685 -0.125811c-0.0123307,-0.00462205 -0.024748,-0.00949606 -0.037248,-0.0146378 -0.0116772,-0.00480315 -0.0233386,-0.00983858 -0.0349921,-0.0151024l-0.10622 0.0756024 -5.51181e-005 -7.48031e-005c-0.0230669,0.0165354 -0.0481575,0.0291614 -0.0745354,0.0376417 -0.027252,0.00876378 -0.0551457,0.0132638 -0.0829449,0.0132638 -0.0360118,0 -0.071248,-0.00720866 -0.104177,-0.0209173 -0.0324528,-0.0135079 -0.0623661,-0.0335197 -0.0882244,-0.0593307l-0.000208661 0.000208661 -0.167075 -0.167071 0.000208661 -0.000208661c-0.047378,-0.0470236 -0.0740827,-0.107492 -0.0793071,-0.16974 -0.0052126,-0.062122 0.0111614,-0.126283 0.0499173,-0.180748l0.000413386 -0.000417323 0.0728937 -0.101366c-0.00578346,-0.0125197 -0.0114331,-0.025315 -0.016937,-0.0383701 -0.00561024,-0.0133071 -0.0109094,-0.0265 -0.0158937,-0.039563l-0.128701 -0.0219606 1.1811e-005 -7.08661e-005c-0.0656181,-0.0111102 -0.122327,-0.0449173 -0.162657,-0.0925866 -0.0405591,-0.0479449 -0.0646024,-0.109602 -0.0646024,-0.176047l0 -0.236035c0,-0.0664567 0.0240394,-0.12811 0.0646024,-0.176059 0.0404016,-0.0477677 0.0972559,-0.0816181 0.163063,-0.0926693l0.122724 -0.020685c0.00477953,-0.0131496 0.00978346,-0.0261654 0.0150118,-0.0390472 0.00529528,-0.0130472 0.0110157,-0.0263071 0.0171654,-0.0397835l-0.0754961 -0.106075c-0.038752,-0.0544134 -0.0549528,-0.118445 -0.049748,-0.180437 0.00525197,-0.0625906 0.0319567,-0.123287 0.0789291,-0.17026l0.000417323 0 0.16698 -0.166409c0.0255276,-0.0259528 0.0555669,-0.0460906 0.0882638,-0.0597047 0.0330472,-0.0137598 0.0685315,-0.0209921 0.104567,-0.0209921 0.0274843,0 0.0554528,0.00451181 0.0829528,0.0132992 0.0270472,0.00864567 0.052563,0.021378 0.0755787,0.0379409l0.10198 0.0734449c0.0124961,-0.00577559 0.0252598,-0.0114094 0.0382913,-0.0169055 0.0133189,-0.00561417 0.0265197,-0.0109173 0.0395945,-0.0159055l0.0219409 -0.128693 7.08661e-005 1.1811e-005c0.0111142,-0.0656299 0.0449134,-0.122331 0.0925906,-0.162657 0.0479488,-0.040563 0.109606,-0.0646024 0.176067,-0.0646024l0.236039 0c0.0664409,0 0.128094,0.0240354 0.176039,0.0646024 0.0477677,0.0404134 0.0816142,0.0972638 0.0926614,0.163063l0.0207402 0.122937c0.0138543,0.00511024 0.0277835,0.0105512 0.0417874,0.016311 0.0147087,0.00604724 0.0291654,0.0123307 0.0433819,0.0188346l0.104173 -0.0741929 5.51181e-005 7.48031e-005c0.0230354,-0.0165315 0.048122,-0.0291693 0.0745276,-0.0376693 0.0272441,-0.00876772 0.0551339,-0.0132677 0.0829488,-0.0132677 0.0360079,0 0.071248,0.00720866 0.104177,0.0209173 0.033,0.0137362 0.0629961,0.0336811 0.088437,0.059122l0.167075 0.167075 -0.000208661 0.000208661c0.047374,0.0470236 0.0740787,0.107496 0.0793031,0.169736 0.0052126,0.062122 -0.0111575,0.126283 -0.0499134,0.180748l-0.0741929 0.103799c0.00577165,0.0126772 0.011374,0.0255827 0.0168071,0.0387008 0.00542126,0.0130945 0.0106063,0.0262756 0.0155472,0.0395315z"/>
   <path id="_367329176" class="fil0" d="M2.32295 1.68178c0.171232,0 0.326272,0.0694173 0.4385,0.181646 0.112228,0.112228 0.181646,0.267264 0.181646,0.4385 0,0.171232 -0.0694173,0.326272 -0.181646,0.4385 -0.112228,0.112228 -0.267268,0.181646 -0.4385,0.181646 -0.171232,0 -0.326272,-0.0694173 -0.4385,-0.181646 -0.112228,-0.112228 -0.181646,-0.267268 -0.181646,-0.4385 0,-0.171232 0.0694173,-0.326272 0.181646,-0.4385 0.112228,-0.112228 0.267268,-0.181646 0.4385,-0.181646zm0.287665 0.33248c-0.0736102,-0.0736102 -0.175319,-0.119142 -0.287665,-0.119142 -0.112346,0 -0.214055,0.0455315 -0.287665,0.119142 -0.0736102,0.0736102 -0.119142,0.175319 -0.119142,0.287665 0,0.112346 0.0455315,0.214055 0.119142,0.287665 0.0736102,0.0736102 0.175319,0.119142 0.287665,0.119142 0.112346,0 0.214055,-0.0455315 0.287665,-0.119142 0.0736102,-0.0736102 0.119142,-0.175319 0.119142,-0.287665 0,-0.11235 -0.0455315,-0.214055 -0.119142,-0.287665z"/>
   <path id="_367329152" class="fil0" d="M5.03249 3.03561c0.13122,-0.00586614 0.258941,-0.046752 0.36937,-0.118024 0.106307,-0.0686102 0.196315,-0.165551 0.257579,-0.286638 0.0609606,-0.120339 0.0857717,-0.249398 0.0785787,-0.374921 -0.00359449,-0.0627677 -0.0151732,-0.124626 -0.0342047,-0.184059l-0.208681 0.412437 -0.0277795 0.0548976 -0.0613858 0.00343701 -0.484394 0.0271378 -0.0614213 0.00344488 -0.0335787 -0.0513622 -0.265988 -0.406815 -0.0335984 -0.0513819 0.0277638 -0.0548701 0.208748 -0.412563c-0.0590591,0.0198228 -0.115622,0.047063 -0.168173,0.081252 -0.105157,0.0684094 -0.194346,0.164772 -0.255524,0.285193 -0.0637717,0.126035 -0.0877835,0.261988 -0.076874,0.393567 0.011311,0.136425 0.0600787,0.267787 0.140902,0.378236l0.0370748 0.0506693 -0.0262441 0.0568307 -0.0017126 0.00370866 -0.00166535 0.00333465 -1.25748 2.48641 -0.000417323 0.000417323c-0.0177402,0.0345394 -0.0277047,0.0715866 -0.0305827,0.108929 -0.00300394,0.0390472 0.00185827,0.0779843 0.0137874,0.114358 0.0118858,0.0362362 0.0306929,0.0699764 0.055685,0.099 0.0243386,0.0282638 0.0546417,0.0523661 0.0902598,0.0703307l-3.14961e-005 6.29921e-005 0.000574803 0c0.0715433,0.0363976 0.151394,0.0401378 0.222547,0.0167992 0.0709882,-0.0232874 0.133343,-0.0737953 0.170079,-0.145953l0.000165354 8.66142e-005 1.2662 -2.50561 0.0280669 -0.0555433 0.0623504 -0.00279134zm0.48437 0.0611417c-0.123799,0.0798976 -0.265008,0.130028 -0.411764,0.146409l-1.23933 2.45244 -6.29921e-005 -3.14961e-005 0 0.000574803c-0.0632638,0.124256 -0.171154,0.211406 -0.294244,0.251787 -0.122941,0.0403268 -0.261071,0.0337677 -0.385051,-0.0293031l8.66142e-005 -0.000169291c-0.0609882,-0.0307953 -0.113051,-0.0722835 -0.155055,-0.121059 -0.0439606,-0.0510512 -0.0768346,-0.109772 -0.0973543,-0.172331 -0.0205315,-0.0625984 -0.0289213,-0.129346 -0.0237874,-0.196028 0.0049252,-0.0639331 0.0224055,-0.12824 0.0536654,-0.189264l-0.000161417 -8.26772e-005 1.23106 -2.43416c-0.0820472,-0.130197 -0.131744,-0.278638 -0.144433,-0.431689 -0.0140157,-0.169075 0.0170276,-0.344154 0.099378,-0.506906 0.0787913,-0.155091 0.193878,-0.279335 0.329689,-0.367689 0.140469,-0.0913819 0.303094,-0.14424 0.470614,-0.153012l0.18328 -0.00959449 -0.0828622 0.163764 -0.278008 0.549453 0.198811 0.304071 0.361583 -0.0202559 0.277996 -0.549429 0.0828858 -0.163815 0.100866 0.153398c0.0923228,0.140413 0.146272,0.303114 0.155866,0.470528 0.00925984,0.161547 -0.0226575,0.327606 -0.101083,0.482425 -0.0790354,0.156213 -0.195256,0.281343 -0.332579,0.369969z"/>
  </g>
 </g>
 <rect class="fil1" width="6.82666" height="6.82666"/>
</svg>
