<?xml version="1.0" encoding="UTF-8"?>
<!DOCTYPE svg PUBLIC "-//W3C//DTD SVG 1.1//EN" "http://www.w3.org/Graphics/SVG/1.1/DTD/svg11.dtd">
<!-- Creator: CorelDRAW -->
<svg xmlns="http://www.w3.org/2000/svg" xml:space="preserve" width="6.82666in" height="6.82666in" style="shape-rendering:geometricPrecision; text-rendering:geometricPrecision; image-rendering:optimizeQuality; fill-rule:evenodd; clip-rule:evenodd"
viewBox="0 0 6.82666 6.82666"
 xmlns:xlink="http://www.w3.org/1999/xlink">
 <defs>
  <style type="text/css">
   <![CDATA[
    .fil2 {fill:none}
    .fil1 {fill:#212121}
    .fil0 {fill:#212121;fill-rule:nonzero}
   ]]>
  </style>
 </defs>
 <g id="Layer_x0020_1">
  <metadata id="CorelCorpID_0Corel-Layer"/>
  <path class="fil0" d="M1.04974 1.55188l2.69199 0 0.106669 0 0 0.106669 0 1.7016 0 0.106669 -0.106669 0 -2.69199 0 -0.106669 0 0 -0.106669 0 -1.7016 0 -0.106669 0.106669 0zm2.58532 0.213339l-2.47865 0 0 1.48826 2.47865 0 0 -1.48826z"/>
  <path class="fil0" d="M0.96 3.57254c-0.0589094,0 -0.106669,0.0477598 -0.106669,0.106669 0,0.0589094 0.0477598,0.106669 0.106669,0.106669l2.87146 0c0.0589094,0 0.106669,-0.0477598 0.106669,-0.106669 0,-0.0589094 -0.0477598,-0.106669 -0.106669,-0.106669l-2.87146 0z"/>
  <path class="fil0" d="M4.15051 2.63863l1.71615 0c0.0589094,0 0.106669,0.0477598 0.106669,0.106669l0 2.42281c0,0.0589094 -0.0477598,0.106669 -0.106669,0.106669l-1.71615 0c-0.0589094,0 -0.106669,-0.0477598 -0.106669,-0.106669l0 -2.42281c0,-0.0589094 0.0477598,-0.106669 0.106669,-0.106669zm1.60948 0.213339l-1.50281 0 0 2.20947 1.50281 0 0 -2.20947z"/>
  <polygon class="fil0" points="4.20159,4.42333 5.86667,4.42333 5.86667,4.63667 4.20159,4.63667 "/>
  <circle class="fil1" cx="5.00859" cy="4.84906" r="0.106349"/>
 </g>
 <rect class="fil2" width="6.82666" height="6.82666"/>
</svg>
