<?xml version="1.0" encoding="UTF-8"?>
<!DOCTYPE svg PUBLIC "-//W3C//DTD SVG 1.1//EN" "http://www.w3.org/Graphics/SVG/1.1/DTD/svg11.dtd">
<!-- Creator: CorelDRAW -->
<svg xmlns="http://www.w3.org/2000/svg" xml:space="preserve" width="6.82666in" height="6.82666in" style="shape-rendering:geometricPrecision; text-rendering:geometricPrecision; image-rendering:optimizeQuality; fill-rule:evenodd; clip-rule:evenodd"
viewBox="0 0 6.82666 6.82666"
 xmlns:xlink="http://www.w3.org/1999/xlink">
 <defs>
  <style type="text/css">
   <![CDATA[
    .fil0 {fill:none}
    .fil2 {fill:#212121}
    .fil1 {fill:#212121;fill-rule:nonzero}
   ]]>
  </style>
 </defs>
 <g id="Layer_x0020_1">
  <metadata id="CorelCorpID_0Corel-Layer"/>
  <g id="_343807376">
   <rect id="_343807136" class="fil0" width="6.82666" height="6.82666"/>
   <rect id="_343807088" class="fil0" x="0.853331" y="0.853331" width="5.12" height="5.12"/>
  </g>
  <path class="fil1" d="M1.07594 1.38666l4.67479 0c0.0907638,0 0.173268,0.0377913 0.233051,0.0986693 0.0593661,0.0604488 0.0962244,0.143543 0.0962244,0.234665l0 3.17334c0,0.091122 -0.0368583,0.174213 -0.0962283,0.234661 -0.0597835,0.060878 -0.142287,0.0986693 -0.233047,0.0986693l-4.67479 0c-0.0907638,0 -0.17326,-0.0377913 -0.233051,-0.0986693 -0.0593661,-0.0604488 -0.0962244,-0.143539 -0.0962244,-0.234661l0 -3.17334c0,-0.091126 0.0368583,-0.174217 0.0962244,-0.234665 0.0597835,-0.060878 0.142287,-0.0986693 0.233051,-0.0986693zm4.67479 0.213339l-4.67479 0c-0.0316654,0 -0.0604803,0.0132165 -0.0813819,0.0344961 -0.0213189,0.0217087 -0.0345551,0.0519606 -0.0345551,0.0855l0 3.17334c0,0.0335394 0.0132362,0.0637874 0.0345551,0.0854961 0.0209016,0.0212795 0.0497165,0.0344961 0.0813819,0.0344961l4.67479 0c0.0316614,0 0.0604764,-0.0132165 0.081378,-0.0344961 0.0213189,-0.0217087 0.0345591,-0.0519606 0.0345591,-0.0854961l0 -3.17334c0,-0.0335394 -0.0132362,-0.0637913 -0.0345551,-0.0855 -0.0209016,-0.0212795 -0.0497165,-0.0344961 -0.0813819,-0.0344961z"/>
  <circle class="fil2" cx="5.44" cy="1.91999" r="0.106665"/>
  <circle class="fil2" cx="5.01333" cy="1.91999" r="0.106665"/>
  <path class="fil1" d="M1.28 2.23999l4.26667 0 0.106669 0 0 0.106669 0 2.34667 0 0.106669 -0.106669 0 -4.26667 0 -0.106669 0 0 -0.106669 0 -2.34667 0 -0.106669 0.106669 0zm4.16 0.213339l-4.05333 0 0 2.13333 4.05333 0 0 -2.13333z"/>
  <path class="fil1" d="M3.41327 3.31431c-0.1165,0 -0.211059,0.0922559 -0.211059,0.205756 0,0.113362 0.0945591,0.205748 0.211059,0.205748 0.116354,0 0.210933,-0.0923858 0.210933,-0.205748 0,-0.1135 -0.0945787,-0.205756 -0.210933,-0.205756z"/>
  <path class="fil1" d="M3.40533 4.2668l0.021374 0c0.00275197,-0.00670472 0.00562598,-0.0137598 0.00859449,-0.0210945 0.0171969,-0.0425315 0.0352283,-0.0888898 0.0500984,-0.12887l0 -0.000417323 0.00635827 -0.0169055 0.0164291 -0.043685 0.0435709 -0.0175669 0.143909 -0.0580276 0.0804173 0.000417323 0.0156142 0.00649213 0.000830709 0.000417323c0.0394803,0.0168622 0.0874803,0.0365591 0.133358,0.054689 0.00885039,0.00349606 0.017315,0.00681102 0.0252795,0.00989764l0.0118504 -0.0115669c-0.00290945,-0.00666142 -0.00598031,-0.0136339 -0.00918504,-0.0208622 -0.0195827,-0.0441614 -0.0399134,-0.0884803 -0.0565157,-0.123083l-0.000417323 0 -0.00782283 -0.016378 -0.0205591 -0.0430433 0.0184764 -0.0440433 0.0596969 -0.142311 0.0173425 -0.0413465 0.0430748 -0.0165669 0.015748 -0.00605906 -5.51181e-005 -0.000137795c0.0408819,-0.015752 0.088878,-0.0349843 0.133551,-0.0535354 0.00791339,-0.0032874 0.0155512,-0.00648819 0.0228307,-0.0095748l0 -0.013122c-0.00640551,-0.00251969 -0.0130787,-0.00511811 -0.0199606,-0.00777165 -0.0373189,-0.0143898 -0.0853425,-0.0320394 -0.133047,-0.0489409l-0.000417323 0 -0.0169016 -0.0060315 -0.0437402 -0.0156102 -0.0183425 -0.0435551 -0.0599803 -0.142417 -0.0179803 -0.042685 0.0183976 -0.0414843 0.00714961 -0.016122c0.0212677,-0.0480039 0.0417756,-0.0955551 0.0564409,-0.131094 0.00280315,-0.00679134 0.00548819,-0.0133543 0.00803937,-0.019626l-0.0122126 -0.0119252c-0.00697244,0.00292913 -0.014315,0.00603543 -0.0219528,0.00929134 -0.0435512,0.018563 -0.0906024,0.0392677 -0.130291,0.0573228l7.08661e-005 0.00015748 -0.0157638 0.00729921 -0.0415906 0.0192598 -0.0425748 -0.0171732 -0.143917 -0.0580394 -0.0421417 -0.0169921 -0.0170276 -0.0421772 -0.00650787 -0.0161181c-0.0189055,-0.0472323 -0.0383898,-0.0942087 -0.0540591,-0.130295 -0.00337008,-0.00776772 -0.00667323,-0.0152835 -0.00986614,-0.0224606l-0.021374 0c-0.00256299,0.00623622 -0.0052126,0.012748 -0.00793307,0.0194843 -0.0172795,0.0428071 -0.0354331,0.0896575 -0.0505236,0.130303l0.000366142 0.000137795 -0.00616142 0.0166024 -0.0162913 0.0439055 -0.0437087 0.0177638 -0.143587 0.0583622 -0.0407126 0.0165512 -0.0409528 -0.0173858 -0.0156457 -0.00664173 6.29921e-005 -0.000149606c-0.0393031,-0.0166417 -0.0873661,-0.0362402 -0.133713,-0.0544803 -0.00877953,-0.00345669 -0.017248,-0.00675197 -0.0252953,-0.00984252l-0.0119134 0.0116693c0.00248425,0.00570866 0.0050748,0.0116102 0.00775591,0.0176732 0.0183189,0.0414252 0.0392441,0.0869685 0.0581063,0.126626l-1.1811e-005 3.93701e-006 0.00754724 0.0155512 0.0208346 0.0429331 -0.018752 0.0445709 -0.0598622 0.142303 -0.0175433 0.0417047 -0.0420394 0.0162087 -0.0160748 0.00619685 -0.000417323 0c-0.0370354,0.0142323 -0.0845315,0.0333031 -0.132165,0.0530748 -0.00815354,0.00338583 -0.0160197,0.0066811 -0.0235039,0.00985827l0 0.0134331c0.00595276,0.00235039 0.0121299,0.00476772 0.0184921,0.00723228 0.034311,0.0132953 0.0833976,0.0313504 0.134764,0.049685l0.000830709 0.000417323 0.0167362 0.00617323 0.0431142 0.0159016 0.0181378 0.0428465 0.0600276 0.14178 0.0179409 0.0423701 -0.0187756 0.0422165 -0.00716535 0.0161102 -0.000153543 -6.69291e-005c-0.0170984,0.0385 -0.0367953,0.0845472 -0.0547992,0.128169 -0.00314173,0.00761417 -0.00615354,0.0149724 -0.00900394,0.0220079l0.0123189 0.0120669c0.00677953,-0.00285039 0.0139094,-0.00587402 0.021315,-0.0090315 0.0437717,-0.0186772 0.0911102,-0.0395197 0.131024,-0.057689l0.0159528 -0.00728346 0.0420394 -0.0191929 0.042126 0.0171063 0.143744 0.0583661 0.0417087 0.0169331 0.0170433 0.0426535 0.00622441 0.0155827 0.000145669 -5.90551e-005c0.0193504,0.0479843 0.0391102,0.0955079 0.0547008,0.131425 0.00321654,0.00740551 0.00634252,0.0145394 0.00934646,0.0213346zm0.0908543 0.213339l-0.158201 0 -0.0641378 0 -0.0300276 -0.0575039c-0.0101142,-0.019374 -0.025563,-0.0532323 -0.0428346,-0.0930039 -0.0159409,-0.0367205 -0.0321732,-0.0751969 -0.0465039,-0.110122l-0.0600472 -0.0243819c-0.0394606,0.0177795 -0.0781457,0.034811 -0.109827,0.0483307 -0.0397126,0.0169449 -0.0742717,0.0309724 -0.0946024,0.0380551l-0.062311 0.0217126 -0.0472717 -0.0462953 -0.111575 -0.109283 -0.0474409 -0.0464724 0.021189 -0.0631142c0.00711811,-0.0212008 0.0208228,-0.0561929 0.0373819,-0.096315 0.0128189,-0.031063 0.0289764,-0.0688268 0.0459764,-0.107531l-0.0239134 -0.0564764c-0.0343386,-0.0125197 -0.0735472,-0.027252 -0.11272,-0.0424291 -0.0405748,-0.0157205 -0.074752,-0.0296929 -0.0939094,-0.0388071l-0.061252 -0.0291457 0 -0.0671063 0 -0.152874 0 -0.0659646 0.0591693 -0.0294528c0.0193307,-0.00961811 0.0544016,-0.0249055 0.0960039,-0.0421732 0.0295276,-0.0122559 0.0687992,-0.0279291 0.111531,-0.0445157l0.0238031 -0.0565866c-0.0173071,-0.0368425 -0.0343031,-0.0739409 -0.0482874,-0.105567 -0.0173504,-0.0392283 -0.0316024,-0.0731417 -0.0388661,-0.0934488l-0.0228819 -0.0639488 0.0487165 -0.0477205 0.111043 -0.10876 0.0459488 -0.045 0.0607165 0.0191693c0.0199843,0.00631102 0.0554724,0.0195866 0.0972795,0.0360433 0.0319055,0.0125591 0.0721102,0.0289921 0.11387,0.0465079l0.0600512 -0.0244094c0.0145157,-0.0385276 0.0292402,-0.0764409 0.041937,-0.107902 0.0160866,-0.0398504 0.030689,-0.0740512 0.0405512,-0.0940709l0.0293622 -0.0595866 0.0660551 0 0.158067 0 0.0640906 0 0.0300748 0.0570866c0.00951575,0.0180669 0.0253228,0.0527362 0.0434764,0.0945472 0.0157559,0.0362835 0.0318425,0.0744921 0.0460236,0.109232l0.059748 0.0240945c0.039374,-0.0177362 0.078,-0.0347244 0.109701,-0.0482402 0.0399764,-0.0170354 0.0747717,-0.0311496 0.0951614,-0.038252l0.0622165 -0.0216732 0.0469488 0.0458386 0.111567 0.108933 0.0476457 0.0465236 -0.0209764 0.063063c-0.00742913,0.0223425 -0.0207008,0.0563583 -0.036437,0.0944961 -0.0155669,0.0377205 -0.0319606,0.0762992 -0.0469173,0.110614l0.0237992 0.0565039c0.0357874,0.0129331 0.0747795,0.0274843 0.111539,0.0416575 0.0411063,0.0158504 0.0758701,0.03 0.095378,0.0392047l0.061252 0.0289055 0 0.0673465 0 0.15272 0 0.0659882 -0.0591693 0.0294291c-0.0192205,0.00955906 -0.0540118,0.0247165 -0.0953307,0.041874 -0.0320039,0.0132913 -0.0714331,0.0290866 -0.112047,0.0449213l-0.0240394 0.057315c0.0179685,0.0379094 0.0343543,0.0734803 0.0468976,0.101764 0.0170748,0.0385079 0.0316654,0.0733976 0.0399488,0.0963189l0.023315 0.0645118 -0.0491496 0.0479921 -0.111244 0.10861 -0.0454134 0.0443346 -0.0604173 -0.0189213c-0.022815,-0.00714567 -0.0584016,-0.020378 -0.098315,-0.0361496 -0.0320906,-0.0126811 -0.0720276,-0.0290984 -0.113228,-0.0465079l-0.0599764 0.0241811c-0.0143701,0.0380472 -0.0289331,0.0754252 -0.0415472,0.106618 -0.0157717,0.0390039 -0.0305984,0.0735827 -0.0412008,0.0952638l-0.0293425 0.0600039 -0.0660748 0z"/>
 </g>
</svg>
