<?xml version="1.0" encoding="UTF-8"?>
<!DOCTYPE svg PUBLIC "-//W3C//DTD SVG 1.1//EN" "http://www.w3.org/Graphics/SVG/1.1/DTD/svg11.dtd">
<!-- Creator: CorelDRAW -->
<svg xmlns="http://www.w3.org/2000/svg" xml:space="preserve" width="6.82666in" height="6.82666in" style="shape-rendering:geometricPrecision; text-rendering:geometricPrecision; image-rendering:optimizeQuality; fill-rule:evenodd; clip-rule:evenodd"
viewBox="0 0 6.82666 6.82666"
 xmlns:xlink="http://www.w3.org/1999/xlink">
 <defs>
  <style type="text/css">
   <![CDATA[
    .fil1 {fill:none}
    .fil0 {fill:#212121;fill-rule:nonzero}
   ]]>
  </style>
 </defs>
 <g id="Layer_x0020_1">
  <metadata id="CorelCorpID_0Corel-Layer"/>
  <path class="fil0" d="M1.06667 5.08502l4.69333 0 0 -3.34339 -4.69333 0 0 3.34339zm4.8 0.213339l-4.90667 0c-0.0589094,0 -0.106669,-0.0477598 -0.106669,-0.106669l0 -3.55672c0,-0.0589094 0.0477598,-0.106669 0.106669,-0.106669l4.90667 0c0.0589094,0 0.106669,0.0477598 0.106669,0.106669l0 3.55672c0,0.0589094 -0.0477598,0.106669 -0.106669,0.106669z"/>
  <path class="fil0" d="M0.959996 2.26435c-0.0589094,0 -0.106669,0.0477598 -0.106669,0.106669 0,0.0589094 0.0477598,0.106669 0.106669,0.106669l4.90667 0c0.0589094,0 0.106669,-0.0477598 0.106669,-0.106669 0,-0.0589094 -0.0477598,-0.106669 -0.106669,-0.106669l-4.90667 0z"/>
  <path class="fil0" d="M4.27597 1.89633c-0.0589094,0 -0.106669,0.0477598 -0.106669,0.106669 0,0.0589094 0.0477598,0.106669 0.106669,0.106669l0.0550748 0c0.0589094,0 0.106669,-0.0477598 0.106669,-0.106669 0,-0.0589094 -0.0477598,-0.106669 -0.106669,-0.106669l-0.0550748 0z"/>
  <path class="fil0" d="M4.82835 1.89633c-0.0589094,0 -0.106669,0.0477598 -0.106669,0.106669 0,0.0589094 0.0477598,0.106669 0.106669,0.106669l0.0550748 0c0.0589094,0 0.106669,-0.0477598 0.106669,-0.106669 0,-0.0589094 -0.0477598,-0.106669 -0.106669,-0.106669l-0.0550748 0z"/>
  <path class="fil0" d="M5.38074 1.89633c-0.0589094,0 -0.106669,0.0477598 -0.106669,0.106669 0,0.0589094 0.0477598,0.106669 0.106669,0.106669l0.0550748 0c0.0589094,0 0.106669,-0.0477598 0.106669,-0.106669 0,-0.0589094 -0.0477598,-0.106669 -0.106669,-0.106669l-0.0550748 0z"/>
  <path class="fil0" d="M2.22549 4.31115l0.16624 0 0.0599016 0.316516 0.0873425 -0.316516 0.165843 0 0.0877362 0.316516 0.0599016 -0.316516 0.165449 0 -0.124815 0.566665 -0.17165 0 -0.0993465 -0.356756 -0.0989528 0.356756 -0.17165 0 -0.126 -0.566665zm0.791618 0l0.16624 0 0.0599016 0.316516 0.0873425 -0.316516 0.165843 0 0.0877362 0.316516 0.0599016 -0.316516 0.165449 0 -0.124815 0.566665 -0.17165 0 -0.0993465 -0.356756 -0.0989528 0.356756 -0.17165 0 -0.126 -0.566665zm0.791618 0l0.16624 0 0.0599016 0.316516 0.0873425 -0.316516 0.165843 0 0.0877362 0.316516 0.0599016 -0.316516 0.165449 0 -0.124815 0.566665 -0.17165 0 -0.0993465 -0.356756 -0.0989528 0.356756 -0.17165 0 -0.126 -0.566665z"/>
  <path class="fil0" d="M3.47791 2.63764l0.622386 0.720827 -0.060311 0.052189 0.0605512 -0.0522835c0.028874,0.0334409 0.0251732,0.0839606 -0.00826772,0.112835 -0.0151299,0.013063 -0.033752,0.0194606 -0.0522835,0.0194488l-9.05512e-005 0 -0.255039 0 0 0.53802c0,0.0441811 -0.0358189,0.08 -0.08,0.08l-0.583035 0c-0.0441811,0 -0.08,-0.0358189 -0.08,-0.08l0 -0.538331 -0.255134 3.93701e-006 0 0.000311024c-0.0441811,0 -0.08,-0.0358189 -0.08,-0.08 0,-0.0222047 0.00904724,-0.0422953 0.0236614,-0.0567913l0.622622 -0.721102 -0.000185039 -0.00015748c0.028874,-0.0334409 0.0793937,-0.0371417 0.112835,-0.00826772 0.00468504,0.00404331 0.00878346,0.00851181 0.0122913,0.0132992zm0.387626 0.693016l-0.452201 -0.523724 -0.452469 0.524035 0.153917 0c0.0023189,-0.000204724 0.00466535,-0.000311024 0.00703543,-0.000311024 0.0441811,0 0.08,0.0358189 0.08,0.08l0 0.53802 0.423035 0 0 -0.53802c0,-0.0441811 0.0358189,-0.08 0.08,-0.08l0.160681 0z"/>
 </g>
 <rect class="fil1" width="6.82666" height="6.82666"/>
</svg>
